M48
; DRILL file {KiCad 7.0.10} date Friday, February 09, 2024 at 09:44:11 AM
; FORMAT={-:-/ absolute / metric / decimal}
; #@! TF.CreationDate,2024-02-09T09:44:11-06:00
; #@! TF.GenerationSoftware,Kicad,Pcbnew,7.0.10
; #@! TF.FileFunction,Plated,1,2,PTH
FMAT,2
METRIC
; #@! TA.AperFunction,Plated,PTH,ViaDrill
T1C0.400
; #@! TA.AperFunction,Plated,PTH,ComponentDrill
T2C0.600
; #@! TA.AperFunction,Plated,PTH,ComponentDrill
T3C0.700
; #@! TA.AperFunction,Plated,PTH,ComponentDrill
T4C0.750
; #@! TA.AperFunction,Plated,PTH,ComponentDrill
T5C0.800
; #@! TA.AperFunction,Plated,PTH,ComponentDrill
T6C0.900
; #@! TA.AperFunction,Plated,PTH,ComponentDrill
T7C0.920
; #@! TA.AperFunction,Plated,PTH,ComponentDrill
T8C1.000
; #@! TA.AperFunction,Plated,PTH,ComponentDrill
T9C1.100
; #@! TA.AperFunction,Plated,PTH,ComponentDrill
T10C1.170
; #@! TA.AperFunction,Plated,PTH,ComponentDrill
T11C2.330
%
G90
G05
T1
X84.0Y-92.5
X84.0Y-102.0
X84.0Y-107.0
X84.0Y-111.5
X84.205Y-56.205
X91.916Y-44.975
X93.5Y-92.5
X96.57Y-100.1
X97.92Y-100.415
X98.0Y-47.0
X98.81Y-99.465
X99.5Y-48.5
X101.5Y-101.0
X111.5Y-37.5
X111.5Y-39.0
X112.045Y-87.955
X113.0Y-36.0
X113.0Y-37.5
X113.0Y-81.5
X113.685Y-90.0
X115.315Y-79.315
X119.5Y-46.0
X119.5Y-49.5
X123.5Y-59.0
X126.0Y-59.0
X128.0Y-80.5
X128.5Y-59.0
X129.0Y-46.0
X129.0Y-49.5
X129.5Y-82.133
X129.516Y-62.516
X133.5Y-61.5
X134.0Y-76.5
X134.0Y-79.0
X134.155Y-66.655
X135.516Y-60.516
X137.5Y-61.5
X145.0Y-97.5
X147.0Y-99.0
X147.0Y-108.0
X150.5Y-114.5
X150.5Y-123.0
X152.5Y-108.0
X153.5Y-107.0
X154.5Y-106.0
X155.0Y-47.0
X155.0Y-53.5
X155.5Y-105.0
X156.5Y-104.0
X157.5Y-103.0
X158.5Y-102.0
X159.5Y-101.0
X163.0Y-57.5
X166.0Y-45.5
X166.5Y-127.0
X168.344Y-60.0
X168.5Y-45.016
X169.5Y-128.12
X169.961Y-59.961
X171.0Y-44.516
X171.5Y-48.5
X173.5Y-44.016
X174.0Y-49.0
X176.0Y-43.5
X176.5Y-49.5
X178.5Y-43.0
X179.002Y-49.998
X181.0Y-42.516
X181.5Y-50.5
X183.5Y-42.0
X183.5Y-59.0
X184.5Y-59.5
X185.5Y-60.0
X186.01Y-40.841
X187.297Y-50.5
X188.55Y-42.841
X191.0Y-56.421
X191.315Y-66.515
X191.315Y-68.405
X191.315Y-70.405
X192.0Y-57.5
X192.315Y-67.515
X192.315Y-69.405
X200.5Y-118.5
T2
X102.862Y-122.708
X102.862Y-124.708
X132.5Y-122.263
X132.5Y-124.263
X137.42Y-122.263
X137.42Y-124.263
T3
X89.17Y-107.735
X91.71Y-107.735
X96.7Y-111.235
X97.6Y-91.735
X97.6Y-94.235
X99.24Y-111.235
X100.14Y-91.735
X100.14Y-94.235
X107.92Y-122.415
X107.92Y-124.955
X116.92Y-101.915
X116.92Y-104.455
X119.42Y-101.915
X119.42Y-104.455
X120.92Y-122.235
X120.92Y-124.775
X142.92Y-130.235
X143.78Y-79.0
X145.46Y-130.235
X146.32Y-79.0
X177.815Y-102.925
X177.815Y-105.465
X180.315Y-102.925
X180.315Y-105.465
X188.25Y-97.08
X188.25Y-99.62
T4
X183.815Y-103.475
X183.815Y-104.745
X183.815Y-106.015
T5
X86.498Y-39.695
X86.498Y-42.235
X86.498Y-44.775
X86.498Y-47.315
X86.498Y-49.855
X86.498Y-52.395
X86.498Y-54.935
X86.498Y-57.475
X86.498Y-60.015
X86.498Y-62.555
X86.498Y-65.095
X86.498Y-67.635
X86.498Y-70.175
X86.498Y-72.715
X86.498Y-75.255
X86.498Y-77.795
X86.498Y-80.335
X86.498Y-82.875
X86.498Y-85.415
X86.498Y-87.955
X89.17Y-111.735
X89.17Y-116.235
X89.92Y-120.655
X89.92Y-123.155
X91.67Y-111.735
X91.67Y-116.235
X96.92Y-116.235
X96.92Y-126.235
X97.92Y-104.735
X97.92Y-107.235
X101.738Y-39.695
X101.738Y-42.235
X101.738Y-44.775
X101.738Y-47.315
X101.738Y-49.855
X101.738Y-52.395
X101.738Y-54.935
X101.738Y-57.475
X101.738Y-60.015
X101.738Y-62.555
X101.738Y-65.095
X101.738Y-67.635
X101.738Y-70.175
X101.738Y-72.715
X101.738Y-75.255
X101.738Y-77.795
X101.738Y-80.335
X101.738Y-82.875
X101.738Y-85.415
X101.738Y-87.955
X103.79Y-101.285
X103.79Y-103.785
X105.17Y-38.0
X105.17Y-42.5
X106.42Y-53.665
X106.42Y-61.285
X107.67Y-38.0
X107.67Y-42.5
X108.29Y-101.285
X108.29Y-103.785
X109.5Y-46.5
X109.5Y-49.0
X114.04Y-46.5
X114.04Y-49.0
X114.04Y-53.665
X114.04Y-61.285
X115.71Y-71.235
X115.71Y-73.735
X118.505Y-38.349
X118.505Y-53.589
X120.845Y-64.0
X120.845Y-66.5
X121.045Y-38.349
X121.045Y-53.589
X121.455Y-74.235
X121.455Y-76.775
X121.455Y-79.315
X121.455Y-81.855
X121.455Y-84.395
X121.455Y-86.935
X123.585Y-38.349
X123.585Y-53.589
X123.995Y-71.695
X123.995Y-74.235
X123.995Y-76.775
X123.995Y-79.315
X123.995Y-81.855
X123.995Y-84.395
X123.995Y-86.935
X123.995Y-89.475
X126.125Y-38.349
X126.125Y-53.589
X126.535Y-71.695
X126.535Y-74.235
X126.535Y-86.935
X126.535Y-89.475
X128.665Y-38.349
X128.665Y-53.589
X129.075Y-71.695
X129.075Y-74.235
X129.075Y-86.935
X129.075Y-89.475
X129.455Y-66.0
X131.205Y-38.349
X131.205Y-53.589
X131.615Y-71.695
X131.615Y-74.235
X131.615Y-86.935
X131.615Y-89.475
X131.955Y-66.0
X133.745Y-38.349
X133.745Y-53.589
X134.155Y-71.695
X134.155Y-74.235
X134.155Y-86.935
X134.155Y-89.475
X136.285Y-38.349
X136.285Y-53.589
X136.455Y-63.5
X136.455Y-66.0
X136.695Y-71.695
X136.695Y-74.235
X136.695Y-76.775
X136.695Y-79.315
X136.695Y-81.855
X136.695Y-84.395
X136.695Y-86.935
X136.695Y-89.475
X138.825Y-38.349
X138.825Y-53.589
X139.235Y-74.235
X139.235Y-76.775
X139.235Y-79.315
X139.235Y-81.855
X139.235Y-84.395
X139.235Y-86.935
X141.365Y-38.349
X141.365Y-53.589
X143.905Y-38.349
X143.905Y-53.589
X144.455Y-82.275
X144.455Y-86.775
X146.445Y-38.349
X146.445Y-53.589
X146.955Y-82.275
X146.955Y-86.775
X148.985Y-38.349
X148.985Y-53.589
X149.275Y-56.896
X149.275Y-59.396
X151.525Y-38.349
X151.525Y-53.589
X153.775Y-56.896
X153.775Y-59.396
X159.34Y-38.19
X159.34Y-53.43
X161.215Y-99.38
X161.215Y-107.0
X161.215Y-110.0
X161.215Y-112.5
X161.559Y-116.308
X161.559Y-123.928
X161.559Y-132.0
X161.559Y-139.62
X161.88Y-38.19
X161.88Y-53.43
X162.485Y-69.34
X162.485Y-71.88
X162.485Y-74.42
X162.485Y-76.96
X162.485Y-79.5
X162.485Y-82.04
X162.485Y-84.58
X162.485Y-87.12
X162.485Y-89.66
X164.099Y-116.308
X164.099Y-123.928
X164.099Y-132.0
X164.099Y-139.62
X164.42Y-38.19
X164.42Y-53.43
X165.025Y-66.8
X165.025Y-69.34
X165.025Y-71.88
X165.025Y-74.42
X165.025Y-76.96
X165.025Y-79.5
X165.025Y-82.04
X165.025Y-84.58
X165.025Y-87.12
X165.025Y-89.66
X165.025Y-92.2
X165.75Y-110.0
X165.75Y-112.5
X166.639Y-116.308
X166.639Y-123.928
X166.639Y-132.0
X166.639Y-139.62
X166.96Y-38.19
X166.96Y-53.43
X167.565Y-66.8
X167.565Y-69.34
X167.565Y-89.66
X167.565Y-92.2
X168.835Y-99.38
X168.835Y-107.0
X169.179Y-116.308
X169.179Y-123.928
X169.179Y-132.0
X169.179Y-139.62
X169.5Y-38.19
X169.5Y-53.43
X170.105Y-66.8
X170.105Y-69.34
X170.105Y-89.66
X170.105Y-92.2
X171.719Y-116.308
X171.719Y-123.928
X171.719Y-132.0
X171.719Y-139.62
X172.04Y-38.19
X172.04Y-53.43
X172.645Y-66.8
X172.645Y-69.34
X172.645Y-89.66
X172.645Y-92.2
X173.5Y-57.905
X173.5Y-60.405
X174.145Y-99.5
X174.145Y-103.5
X174.145Y-106.0
X174.259Y-116.308
X174.259Y-123.928
X174.259Y-132.0
X174.259Y-139.62
X174.58Y-38.19
X174.58Y-53.43
X175.185Y-66.8
X175.185Y-69.34
X175.185Y-89.66
X175.185Y-92.2
X176.645Y-99.5
X176.799Y-116.308
X176.799Y-123.928
X176.799Y-132.0
X176.799Y-139.62
X177.12Y-38.19
X177.12Y-53.43
X177.5Y-60.405
X177.725Y-66.8
X177.725Y-69.34
X177.725Y-89.66
X177.725Y-92.2
X179.339Y-116.308
X179.339Y-123.928
X179.339Y-132.0
X179.339Y-139.62
X179.66Y-38.19
X179.66Y-53.43
X180.0Y-60.405
X180.265Y-66.8
X180.265Y-69.34
X180.265Y-89.66
X180.265Y-92.2
X181.565Y-99.5
X181.879Y-116.308
X181.879Y-123.928
X181.879Y-132.0
X181.879Y-139.62
X182.2Y-38.19
X182.2Y-53.43
X182.805Y-66.8
X182.805Y-69.34
X182.805Y-89.66
X182.805Y-92.2
X184.065Y-99.5
X184.419Y-116.308
X184.419Y-123.928
X184.419Y-132.0
X184.419Y-139.62
X184.74Y-38.19
X184.74Y-53.43
X185.345Y-66.8
X185.345Y-69.34
X185.345Y-71.88
X185.345Y-74.42
X185.345Y-76.96
X185.345Y-79.5
X185.345Y-82.04
X185.345Y-84.58
X185.345Y-87.12
X185.345Y-89.66
X185.345Y-92.2
X186.959Y-116.308
X186.959Y-123.928
X186.959Y-132.0
X186.959Y-139.62
X187.28Y-38.19
X187.28Y-53.43
X187.885Y-69.34
X187.885Y-71.88
X187.885Y-74.42
X187.885Y-76.96
X187.885Y-79.5
X187.885Y-82.04
X187.885Y-84.58
X187.885Y-87.12
X187.885Y-89.66
X189.499Y-116.308
X189.499Y-123.928
X189.499Y-132.0
X189.499Y-139.62
X189.82Y-38.19
X189.82Y-53.43
X192.039Y-116.308
X192.039Y-123.928
X192.039Y-132.0
X192.039Y-139.62
X192.36Y-38.19
X192.36Y-53.43
X194.579Y-116.308
X194.579Y-123.928
X194.579Y-132.0
X194.579Y-139.62
X196.315Y-48.93
X196.315Y-51.43
X196.315Y-55.43
X196.315Y-57.93
X198.5Y-121.12
X198.5Y-123.62
X198.5Y-127.12
X198.5Y-129.62
X198.5Y-133.62
X198.5Y-136.12
X198.5Y-139.62
X198.5Y-142.12
T6
X104.92Y-93.735
X104.92Y-96.275
X111.42Y-93.735
X111.42Y-96.275
X125.38Y-123.235
X127.92Y-123.235
X142.92Y-123.235
X145.46Y-123.235
T7
X83.277Y-118.155
X83.277Y-120.655
X85.277Y-118.155
X85.277Y-120.655
T8
X80.656Y-36.627
X80.656Y-39.167
X80.656Y-41.707
X80.656Y-44.247
X80.656Y-46.787
X80.656Y-49.327
X80.656Y-55.169
X80.656Y-57.709
X80.656Y-60.249
X80.656Y-62.789
X80.656Y-65.329
X80.656Y-67.869
X80.656Y-70.409
X80.656Y-72.949
X80.656Y-78.765
X80.656Y-81.305
X80.656Y-83.845
X80.656Y-92.862
X80.656Y-95.402
X80.656Y-97.942
X80.656Y-100.482
X80.656Y-103.022
X80.656Y-105.562
X88.42Y-96.615
X88.42Y-99.155
X88.42Y-101.695
X88.42Y-104.235
X90.96Y-96.615
X90.96Y-99.155
X90.96Y-101.695
X90.96Y-104.235
X112.79Y-101.285
X112.79Y-103.825
X118.17Y-98.83
X129.96Y-109.735
X130.345Y-97.5
X132.885Y-97.5
X135.425Y-97.5
X137.965Y-97.5
X140.505Y-97.5
X141.96Y-109.735
X143.045Y-97.5
X145.0Y-71.0
X145.0Y-76.0
X145.0Y-90.75
X146.01Y-138.455
X148.55Y-138.455
X153.25Y-142.25
X192.5Y-98.35
T9
X103.38Y-116.735
X105.92Y-116.735
X108.46Y-116.735
X112.42Y-120.978
X112.42Y-126.058
X115.38Y-116.735
X117.92Y-116.735
X120.46Y-116.735
X127.42Y-116.735
X129.96Y-116.735
X132.5Y-116.735
X139.42Y-116.735
X141.42Y-134.417
X141.42Y-139.497
X141.96Y-116.735
X144.5Y-116.735
X188.315Y-102.245
X188.315Y-108.745
X192.815Y-102.245
X192.815Y-108.745
T10
X85.05Y-134.417
X85.05Y-139.417
X102.85Y-134.417
X102.85Y-139.417
X113.142Y-134.417
X113.142Y-139.417
X130.942Y-134.417
X130.942Y-139.417
T11
X80.567Y-113.385
X80.567Y-125.425
M30
