%TF.GenerationSoftware,KiCad,Pcbnew,7.0.10*%
%TF.CreationDate,2024-02-05T22:28:16-06:00*%
%TF.ProjectId,SBC Circuit,53424320-4369-4726-9375-69742e6b6963,0.0*%
%TF.SameCoordinates,Original*%
%TF.FileFunction,Soldermask,Top*%
%TF.FilePolarity,Negative*%
%FSLAX46Y46*%
G04 Gerber Fmt 4.6, Leading zero omitted, Abs format (unit mm)*
G04 Created by KiCad (PCBNEW 7.0.10) date 2024-02-05 22:28:16*
%MOMM*%
%LPD*%
G01*
G04 APERTURE LIST*
G04 Aperture macros list*
%AMRoundRect*
0 Rectangle with rounded corners*
0 $1 Rounding radius*
0 $2 $3 $4 $5 $6 $7 $8 $9 X,Y pos of 4 corners*
0 Add a 4 corners polygon primitive as box body*
4,1,4,$2,$3,$4,$5,$6,$7,$8,$9,$2,$3,0*
0 Add four circle primitives for the rounded corners*
1,1,$1+$1,$2,$3*
1,1,$1+$1,$4,$5*
1,1,$1+$1,$6,$7*
1,1,$1+$1,$8,$9*
0 Add four rect primitives between the rounded corners*
20,1,$1+$1,$2,$3,$4,$5,0*
20,1,$1+$1,$4,$5,$6,$7,0*
20,1,$1+$1,$6,$7,$8,$9,0*
20,1,$1+$1,$8,$9,$2,$3,0*%
G04 Aperture macros list end*
%ADD10RoundRect,0.550000X-0.550000X-0.550000X0.550000X-0.550000X0.550000X0.550000X-0.550000X0.550000X0*%
%ADD11C,2.200000*%
%ADD12C,2.000000*%
%ADD13R,1.600000X1.600000*%
%ADD14C,1.600000*%
%ADD15R,1.700000X1.700000*%
%ADD16O,1.700000X1.700000*%
%ADD17C,1.400000*%
%ADD18O,1.400000X1.400000*%
%ADD19O,1.600000X1.600000*%
%ADD20R,2.200000X2.200000*%
%ADD21O,2.200000X2.200000*%
%ADD22R,1.800000X1.800000*%
%ADD23C,1.800000*%
%ADD24C,1.700000*%
%ADD25C,3.500000*%
%ADD26R,1.905000X2.000000*%
%ADD27O,1.905000X2.000000*%
%ADD28R,1.200000X0.400000*%
%ADD29R,1.422400X1.422400*%
%ADD30C,1.422400*%
%ADD31R,1.200000X1.200000*%
%ADD32C,1.200000*%
%ADD33R,1.500000X1.050000*%
%ADD34O,1.500000X1.050000*%
G04 APERTURE END LIST*
D10*
%TO.C,F1*%
X113142400Y-134416800D03*
X113142400Y-139416800D03*
D11*
X130942400Y-139416800D03*
X130942400Y-134416800D03*
%TD*%
D12*
%TO.C,TP2*%
X129960000Y-109735400D03*
%TD*%
D13*
%TO.C,C23*%
X153775000Y-56896000D03*
D14*
X153775000Y-59396000D03*
%TD*%
D13*
%TO.C,C27*%
X108290000Y-101285400D03*
D14*
X108290000Y-103785400D03*
%TD*%
D15*
%TO.C,J6*%
X80655800Y-55168800D03*
D16*
X80655800Y-57708800D03*
X80655800Y-60248800D03*
X80655800Y-62788800D03*
X80655800Y-65328800D03*
X80655800Y-67868800D03*
X80655800Y-70408800D03*
X80655800Y-72948800D03*
%TD*%
D13*
%TO.C,C14*%
X131954961Y-66000000D03*
D14*
X129454961Y-66000000D03*
%TD*%
D17*
%TO.C,R7*%
X119420000Y-104455400D03*
D18*
X119420000Y-101915400D03*
%TD*%
D13*
%TO.C,U6*%
X151525000Y-38349000D03*
D19*
X148985000Y-38349000D03*
X146445000Y-38349000D03*
X143905000Y-38349000D03*
X141365000Y-38349000D03*
X138825000Y-38349000D03*
X136285000Y-38349000D03*
X133745000Y-38349000D03*
X131205000Y-38349000D03*
X128665000Y-38349000D03*
X126125000Y-38349000D03*
X123585000Y-38349000D03*
X121045000Y-38349000D03*
X118505000Y-38349000D03*
X118505000Y-53589000D03*
X121045000Y-53589000D03*
X123585000Y-53589000D03*
X126125000Y-53589000D03*
X128665000Y-53589000D03*
X131205000Y-53589000D03*
X133745000Y-53589000D03*
X136285000Y-53589000D03*
X138825000Y-53589000D03*
X141365000Y-53589000D03*
X143905000Y-53589000D03*
X146445000Y-53589000D03*
X148985000Y-53589000D03*
X151525000Y-53589000D03*
%TD*%
D13*
%TO.C,C9*%
X173500000Y-60405000D03*
D14*
X173500000Y-57905000D03*
%TD*%
D12*
%TO.C,TP4*%
X188814600Y-98245000D03*
%TD*%
%TO.C,TP7*%
X144500000Y-78000000D03*
%TD*%
D20*
%TO.C,D2*%
X112420000Y-120977583D03*
D21*
X112420000Y-126057583D03*
%TD*%
D15*
%TO.C,J3*%
X130344961Y-97500000D03*
D16*
X132884961Y-97500000D03*
X135424961Y-97500000D03*
X137964961Y-97500000D03*
X140504961Y-97500000D03*
X143044961Y-97500000D03*
%TD*%
D15*
%TO.C,J8*%
X112790000Y-101285400D03*
D16*
X112790000Y-103825400D03*
%TD*%
D14*
%TO.C,FB1*%
X96920000Y-126235400D03*
D19*
X96920000Y-116235400D03*
%TD*%
D13*
%TO.C,C4*%
X89920000Y-120655400D03*
D14*
X89920000Y-123155400D03*
%TD*%
D13*
%TO.C,U7*%
X192360000Y-38190418D03*
D19*
X189820000Y-38190418D03*
X187280000Y-38190418D03*
X184740000Y-38190418D03*
X182200000Y-38190418D03*
X179660000Y-38190418D03*
X177120000Y-38190418D03*
X174580000Y-38190418D03*
X172040000Y-38190418D03*
X169500000Y-38190418D03*
X166960000Y-38190418D03*
X164420000Y-38190418D03*
X161880000Y-38190418D03*
X159340000Y-38190418D03*
X159340000Y-53430418D03*
X161880000Y-53430418D03*
X164420000Y-53430418D03*
X166960000Y-53430418D03*
X169500000Y-53430418D03*
X172040000Y-53430418D03*
X174580000Y-53430418D03*
X177120000Y-53430418D03*
X179660000Y-53430418D03*
X182200000Y-53430418D03*
X184740000Y-53430418D03*
X187280000Y-53430418D03*
X189820000Y-53430418D03*
X192360000Y-53430418D03*
%TD*%
D13*
%TO.C,C21*%
X198500000Y-126500000D03*
D14*
X198500000Y-129000000D03*
%TD*%
D13*
%TO.C,C20*%
X198500000Y-123000000D03*
D14*
X198500000Y-120500000D03*
%TD*%
D13*
%TO.C,C12*%
X120844961Y-66500000D03*
D14*
X120844961Y-64000000D03*
%TD*%
D15*
%TO.C,J4*%
X80655800Y-92862400D03*
D16*
X80655800Y-95402400D03*
X80655800Y-97942400D03*
X80655800Y-100482400D03*
X80655800Y-103022400D03*
X80655800Y-105562400D03*
%TD*%
D22*
%TO.C,D5*%
X111420000Y-93735400D03*
D23*
X111420000Y-96275400D03*
%TD*%
D22*
%TO.C,D6*%
X104920000Y-93735400D03*
D23*
X104920000Y-96275400D03*
%TD*%
D10*
%TO.C,F2*%
X85050000Y-134416800D03*
X85050000Y-139416800D03*
D11*
X102850000Y-139416800D03*
X102850000Y-134416800D03*
%TD*%
D17*
%TO.C,R5*%
X180314600Y-104965000D03*
D18*
X180314600Y-102425000D03*
%TD*%
D15*
%TO.C,J1*%
X85277500Y-120655400D03*
D24*
X85277500Y-118155400D03*
X83277500Y-118155400D03*
X83277500Y-120655400D03*
D25*
X80567500Y-125425400D03*
X80567500Y-113385400D03*
%TD*%
D13*
%TO.C,C29*%
X89170000Y-111735400D03*
D14*
X91670000Y-111735400D03*
%TD*%
D17*
%TO.C,R3*%
X96700000Y-111235400D03*
D18*
X99240000Y-111235400D03*
%TD*%
D13*
%TO.C,C17*%
X105170000Y-43000000D03*
D14*
X107670000Y-43000000D03*
%TD*%
D13*
%TO.C,C16*%
X105170000Y-38500000D03*
D14*
X107670000Y-38500000D03*
%TD*%
D13*
%TO.C,U4*%
X194579000Y-131380000D03*
D19*
X192039000Y-131380000D03*
X189499000Y-131380000D03*
X186959000Y-131380000D03*
X184419000Y-131380000D03*
X181879000Y-131380000D03*
X179339000Y-131380000D03*
X176799000Y-131380000D03*
X174259000Y-131380000D03*
X171719000Y-131380000D03*
X169179000Y-131380000D03*
X166639000Y-131380000D03*
X164099000Y-131380000D03*
X161559000Y-131380000D03*
X161559000Y-139000000D03*
X164099000Y-139000000D03*
X166639000Y-139000000D03*
X169179000Y-139000000D03*
X171719000Y-139000000D03*
X174259000Y-139000000D03*
X176799000Y-139000000D03*
X179339000Y-139000000D03*
X181879000Y-139000000D03*
X184419000Y-139000000D03*
X186959000Y-139000000D03*
X189499000Y-139000000D03*
X192039000Y-139000000D03*
X194579000Y-139000000D03*
%TD*%
D22*
%TO.C,D4*%
X145460000Y-123235400D03*
D23*
X142920000Y-123235400D03*
%TD*%
D13*
%TO.C,C19*%
X198500000Y-139000000D03*
D14*
X198500000Y-141500000D03*
%TD*%
D13*
%TO.C,C11*%
X144454961Y-86775400D03*
D14*
X146954961Y-86775400D03*
%TD*%
D13*
%TO.C,C26*%
X103790000Y-101285400D03*
D14*
X103790000Y-103785400D03*
%TD*%
D12*
%TO.C,TP3*%
X141960000Y-109735400D03*
%TD*%
D13*
%TO.C,C30*%
X89170000Y-116235400D03*
D14*
X91670000Y-116235400D03*
%TD*%
D17*
%TO.C,R10*%
X100140000Y-91735400D03*
D18*
X97600000Y-91735400D03*
%TD*%
D15*
%TO.C,J2*%
X146010000Y-138455400D03*
D16*
X148550000Y-138455400D03*
%TD*%
D13*
%TO.C,C15*%
X136454961Y-66000000D03*
D14*
X136454961Y-63500000D03*
%TD*%
D13*
%TO.C,C25*%
X196315000Y-51430418D03*
D14*
X196315000Y-48930418D03*
%TD*%
D26*
%TO.C,Q2*%
X103380000Y-116735400D03*
D27*
X105920000Y-116735400D03*
X108460000Y-116735400D03*
%TD*%
D13*
%TO.C,C18*%
X198500000Y-135500000D03*
D14*
X198500000Y-133000000D03*
%TD*%
D13*
%TO.C,U3*%
X86497800Y-39695400D03*
D19*
X86497800Y-42235400D03*
X86497800Y-44775400D03*
X86497800Y-47315400D03*
X86497800Y-49855400D03*
X86497800Y-52395400D03*
X86497800Y-54935400D03*
X86497800Y-57475400D03*
X86497800Y-60015400D03*
X86497800Y-62555400D03*
X86497800Y-65095400D03*
X86497800Y-67635400D03*
X86497800Y-70175400D03*
X86497800Y-72715400D03*
X86497800Y-75255400D03*
X86497800Y-77795400D03*
X86497800Y-80335400D03*
X86497800Y-82875400D03*
X86497800Y-85415400D03*
X86497800Y-87955400D03*
X101737800Y-87955400D03*
X101737800Y-85415400D03*
X101737800Y-82875400D03*
X101737800Y-80335400D03*
X101737800Y-77795400D03*
X101737800Y-75255400D03*
X101737800Y-72715400D03*
X101737800Y-70175400D03*
X101737800Y-67635400D03*
X101737800Y-65095400D03*
X101737800Y-62555400D03*
X101737800Y-60015400D03*
X101737800Y-57475400D03*
X101737800Y-54935400D03*
X101737800Y-52395400D03*
X101737800Y-49855400D03*
X101737800Y-47315400D03*
X101737800Y-44775400D03*
X101737800Y-42235400D03*
X101737800Y-39695400D03*
%TD*%
D28*
%TO.C,U10*%
X95090000Y-97560400D03*
X95090000Y-98195400D03*
X95090000Y-98830400D03*
X95090000Y-99465400D03*
X95090000Y-100100400D03*
X95090000Y-100735400D03*
X95090000Y-101370400D03*
X95090000Y-102005400D03*
X100290000Y-102005400D03*
X100290000Y-101370400D03*
X100290000Y-100735400D03*
X100290000Y-100100400D03*
X100290000Y-99465400D03*
X100290000Y-98830400D03*
X100290000Y-98195400D03*
X100290000Y-97560400D03*
%TD*%
D13*
%TO.C,C8*%
X177500000Y-60405000D03*
D14*
X180000000Y-60405000D03*
%TD*%
D13*
%TO.C,C22*%
X149275000Y-56896000D03*
D14*
X149275000Y-59396000D03*
%TD*%
D12*
%TO.C,TP5*%
X118170000Y-98830400D03*
%TD*%
D17*
%TO.C,R8*%
X120920000Y-122235400D03*
D18*
X120920000Y-124775400D03*
%TD*%
D29*
%TO.C,U1*%
X162484600Y-79500000D03*
D30*
X165024600Y-79500000D03*
X162484600Y-82040000D03*
X165024600Y-82040000D03*
X162484600Y-84580000D03*
X165024600Y-84580000D03*
X162484600Y-87120000D03*
X165024600Y-87120000D03*
X162484600Y-89660000D03*
X165024600Y-92200000D03*
X165024600Y-89660000D03*
X167564600Y-92200000D03*
X167564600Y-89660000D03*
X170104600Y-92200000D03*
X170104600Y-89660000D03*
X172644600Y-92200000D03*
X172644600Y-89660000D03*
X175184600Y-92200000D03*
X175184600Y-89660000D03*
X177724600Y-92200000D03*
X177724600Y-89660000D03*
X180264600Y-92200000D03*
X180264600Y-89660000D03*
X182804600Y-92200000D03*
X182804600Y-89660000D03*
X185344600Y-92200000D03*
X187884600Y-89660000D03*
X185344600Y-89660000D03*
X187884600Y-87120000D03*
X185344600Y-87120000D03*
X187884600Y-84580000D03*
X185344600Y-84580000D03*
X187884600Y-82040000D03*
X185344600Y-82040000D03*
X187884600Y-79500000D03*
X185344600Y-79500000D03*
X187884600Y-76960000D03*
X185344600Y-76960000D03*
X187884600Y-74420000D03*
X185344600Y-74420000D03*
X187884600Y-71880000D03*
X185344600Y-71880000D03*
X187884600Y-69340000D03*
X185344600Y-66800000D03*
X185344600Y-69340000D03*
X182804600Y-66800000D03*
X182804600Y-69340000D03*
X180264600Y-66800000D03*
X180264600Y-69340000D03*
X177724600Y-66800000D03*
X177724600Y-69340000D03*
X175184600Y-66800000D03*
X175184600Y-69340000D03*
X172644600Y-66800000D03*
X172644600Y-69340000D03*
X170104600Y-66800000D03*
X170104600Y-69340000D03*
X167564600Y-66800000D03*
X167564600Y-69340000D03*
X165024600Y-66800000D03*
X162484600Y-69340000D03*
X165024600Y-69340000D03*
X162484600Y-71880000D03*
X165024600Y-71880000D03*
X162484600Y-74420000D03*
X165024600Y-74420000D03*
X162484600Y-76960000D03*
X165024600Y-76960000D03*
%TD*%
D26*
%TO.C,Q1*%
X115380000Y-116735400D03*
D27*
X117920000Y-116735400D03*
X120460000Y-116735400D03*
%TD*%
D31*
%TO.C,C1*%
X132500000Y-122262801D03*
D32*
X132500000Y-124262801D03*
%TD*%
D31*
%TO.C,C2*%
X137420000Y-122262801D03*
D32*
X137420000Y-124262801D03*
%TD*%
D12*
%TO.C,TP1*%
X153250000Y-142250000D03*
%TD*%
%TO.C,SW1*%
X188314600Y-101745000D03*
X188314600Y-108245000D03*
X192814600Y-101745000D03*
X192814600Y-108245000D03*
%TD*%
D13*
%TO.C,C10*%
X144454961Y-82275400D03*
D14*
X146954961Y-82275400D03*
%TD*%
D26*
%TO.C,U8*%
X127420000Y-116735400D03*
D27*
X129960000Y-116735400D03*
X132500000Y-116735400D03*
%TD*%
D17*
%TO.C,R9*%
X142920000Y-130235400D03*
D18*
X145460000Y-130235400D03*
%TD*%
D31*
%TO.C,C3*%
X102862400Y-124708000D03*
D32*
X102862400Y-122708000D03*
%TD*%
D17*
%TO.C,R1*%
X107920000Y-124955400D03*
D18*
X107920000Y-122415400D03*
%TD*%
D13*
%TO.C,C6*%
X174144600Y-103500000D03*
D14*
X174144600Y-106000000D03*
%TD*%
D15*
%TO.C,J7*%
X80655800Y-36626800D03*
D16*
X80655800Y-39166800D03*
X80655800Y-41706800D03*
X80655800Y-44246800D03*
X80655800Y-46786800D03*
X80655800Y-49326800D03*
%TD*%
D29*
%TO.C,U2*%
X123994961Y-79315400D03*
D30*
X121454961Y-81855400D03*
X123994961Y-81855400D03*
X121454961Y-84395400D03*
X123994961Y-84395400D03*
X121454961Y-86935400D03*
X123994961Y-89475400D03*
X123994961Y-86935400D03*
X126534961Y-89475400D03*
X126534961Y-86935400D03*
X129074961Y-89475400D03*
X129074961Y-86935400D03*
X131614961Y-89475400D03*
X131614961Y-86935400D03*
X134154961Y-89475400D03*
X134154961Y-86935400D03*
X136694961Y-89475400D03*
X139234961Y-86935400D03*
X136694961Y-86935400D03*
X139234961Y-84395400D03*
X136694961Y-84395400D03*
X139234961Y-81855400D03*
X136694961Y-81855400D03*
X139234961Y-79315400D03*
X136694961Y-79315400D03*
X139234961Y-76775400D03*
X136694961Y-76775400D03*
X139234961Y-74235400D03*
X136694961Y-71695400D03*
X136694961Y-74235400D03*
X134154961Y-71695400D03*
X134154961Y-74235400D03*
X131614961Y-71695400D03*
X131614961Y-74235400D03*
X129074961Y-71695400D03*
X129074961Y-74235400D03*
X126534961Y-71695400D03*
X126534961Y-74235400D03*
X123994961Y-71695400D03*
X121454961Y-74235400D03*
X123994961Y-74235400D03*
X121454961Y-76775400D03*
X123994961Y-76775400D03*
X121454961Y-79315400D03*
%TD*%
D13*
%TO.C,C24*%
X196315000Y-55430418D03*
D14*
X196315000Y-57930418D03*
%TD*%
D13*
%TO.C,U5*%
X194579000Y-115688000D03*
D19*
X192039000Y-115688000D03*
X189499000Y-115688000D03*
X186959000Y-115688000D03*
X184419000Y-115688000D03*
X181879000Y-115688000D03*
X179339000Y-115688000D03*
X176799000Y-115688000D03*
X174259000Y-115688000D03*
X171719000Y-115688000D03*
X169179000Y-115688000D03*
X166639000Y-115688000D03*
X164099000Y-115688000D03*
X161559000Y-115688000D03*
X161559000Y-123308000D03*
X164099000Y-123308000D03*
X166639000Y-123308000D03*
X169179000Y-123308000D03*
X171719000Y-123308000D03*
X174259000Y-123308000D03*
X176799000Y-123308000D03*
X179339000Y-123308000D03*
X181879000Y-123308000D03*
X184419000Y-123308000D03*
X186959000Y-123308000D03*
X189499000Y-123308000D03*
X192039000Y-123308000D03*
X194579000Y-123308000D03*
%TD*%
D13*
%TO.C,C7*%
X174144600Y-99000000D03*
D14*
X176644600Y-99000000D03*
%TD*%
D13*
%TO.C,C13*%
X115709961Y-71235400D03*
D14*
X115709961Y-73735400D03*
%TD*%
D13*
%TO.C,C28*%
X97920000Y-104735400D03*
D14*
X97920000Y-107235400D03*
%TD*%
D15*
%TO.C,J9*%
X88420000Y-96615400D03*
D16*
X90960000Y-96615400D03*
X88420000Y-99155400D03*
X90960000Y-99155400D03*
X88420000Y-101695400D03*
X90960000Y-101695400D03*
X88420000Y-104235400D03*
X90960000Y-104235400D03*
%TD*%
D26*
%TO.C,U9*%
X139420000Y-116735400D03*
D27*
X141960000Y-116735400D03*
X144500000Y-116735400D03*
%TD*%
D12*
%TO.C,TP8*%
X146500000Y-91500000D03*
%TD*%
D13*
%TO.C,C5*%
X181564600Y-99000000D03*
D14*
X184064600Y-99000000D03*
%TD*%
D33*
%TO.C,U11*%
X183814600Y-102975000D03*
D34*
X183814600Y-104245000D03*
X183814600Y-105515000D03*
%TD*%
D20*
%TO.C,D1*%
X141420000Y-134416800D03*
D21*
X141420000Y-139496800D03*
%TD*%
D17*
%TO.C,R4*%
X177814600Y-104965000D03*
D18*
X177814600Y-102425000D03*
%TD*%
D12*
%TO.C,TP6*%
X144500000Y-72000000D03*
%TD*%
D13*
%TO.C,X1*%
X161214600Y-106500000D03*
D19*
X168834600Y-106500000D03*
X168834600Y-98880000D03*
X161214600Y-98880000D03*
%TD*%
D17*
%TO.C,R11*%
X100140000Y-94235400D03*
D18*
X97600000Y-94235400D03*
%TD*%
D22*
%TO.C,D3*%
X125380000Y-123235400D03*
D23*
X127920000Y-123235400D03*
%TD*%
D17*
%TO.C,R2*%
X89170000Y-107735400D03*
D18*
X91710000Y-107735400D03*
%TD*%
D17*
%TO.C,R6*%
X116920000Y-104455400D03*
D18*
X116920000Y-101915400D03*
%TD*%
D13*
%TO.C,X2*%
X106420000Y-53665400D03*
D14*
X106420000Y-61285400D03*
X114040000Y-61285400D03*
X114040000Y-53665400D03*
%TD*%
D15*
%TO.C,J5*%
X80655800Y-78765400D03*
D16*
X80655800Y-81305400D03*
X80655800Y-83845400D03*
%TD*%
G36*
X198135333Y-91135338D02*
G01*
X198492502Y-91154056D01*
X198502974Y-91155157D01*
X198853623Y-91210695D01*
X198863923Y-91212884D01*
X199206848Y-91304770D01*
X199216863Y-91308024D01*
X199548304Y-91435252D01*
X199557924Y-91439535D01*
X199874253Y-91600713D01*
X199883372Y-91605978D01*
X200181115Y-91799334D01*
X200189634Y-91805523D01*
X200465543Y-92028950D01*
X200473368Y-92035996D01*
X200724403Y-92287031D01*
X200731449Y-92294856D01*
X200954876Y-92570765D01*
X200961065Y-92579284D01*
X201154421Y-92877027D01*
X201159686Y-92886146D01*
X201320864Y-93202475D01*
X201325147Y-93212095D01*
X201452375Y-93543536D01*
X201455629Y-93553551D01*
X201547515Y-93896476D01*
X201549704Y-93906776D01*
X201605242Y-94257425D01*
X201606343Y-94267897D01*
X201624924Y-94622435D01*
X201624924Y-94632965D01*
X201606343Y-94987502D01*
X201605242Y-94997974D01*
X201549704Y-95348623D01*
X201547515Y-95358923D01*
X201455629Y-95701848D01*
X201452375Y-95711863D01*
X201325147Y-96043304D01*
X201320864Y-96052924D01*
X201159686Y-96369253D01*
X201154421Y-96378372D01*
X200961065Y-96676115D01*
X200954876Y-96684634D01*
X200731449Y-96960543D01*
X200724403Y-96968368D01*
X200473368Y-97219403D01*
X200465543Y-97226449D01*
X200189634Y-97449876D01*
X200181115Y-97456065D01*
X199883372Y-97649421D01*
X199874253Y-97654686D01*
X199557924Y-97815864D01*
X199548304Y-97820147D01*
X199216863Y-97947375D01*
X199206848Y-97950629D01*
X198863923Y-98042515D01*
X198853623Y-98044704D01*
X198502974Y-98100242D01*
X198492502Y-98101343D01*
X198135333Y-98120062D01*
X198130068Y-98120200D01*
X196001732Y-98120200D01*
X195996467Y-98120062D01*
X195639297Y-98101343D01*
X195628825Y-98100242D01*
X195278176Y-98044704D01*
X195267876Y-98042515D01*
X194924951Y-97950629D01*
X194914936Y-97947375D01*
X194583495Y-97820147D01*
X194573875Y-97815864D01*
X194257546Y-97654686D01*
X194248427Y-97649421D01*
X193950684Y-97456065D01*
X193942165Y-97449876D01*
X193666256Y-97226449D01*
X193658431Y-97219403D01*
X193407396Y-96968368D01*
X193400350Y-96960543D01*
X193176923Y-96684634D01*
X193170734Y-96676115D01*
X192977378Y-96378372D01*
X192972113Y-96369253D01*
X192810935Y-96052924D01*
X192806652Y-96043304D01*
X192679424Y-95711863D01*
X192676170Y-95701848D01*
X192584284Y-95358923D01*
X192582095Y-95348623D01*
X192526557Y-94997974D01*
X192525456Y-94987502D01*
X192506875Y-94632965D01*
X192506875Y-94622435D01*
X192525456Y-94267897D01*
X192526557Y-94257425D01*
X192582095Y-93906776D01*
X192584284Y-93896476D01*
X192676170Y-93553551D01*
X192679424Y-93543536D01*
X192806652Y-93212095D01*
X192810935Y-93202475D01*
X192972113Y-92886146D01*
X192977378Y-92877027D01*
X193170734Y-92579284D01*
X193176923Y-92570765D01*
X193400350Y-92294856D01*
X193407396Y-92287031D01*
X193658431Y-92035996D01*
X193666256Y-92028950D01*
X193942165Y-91805523D01*
X193950684Y-91799334D01*
X194248427Y-91605978D01*
X194257546Y-91600713D01*
X194573875Y-91439535D01*
X194583495Y-91435252D01*
X194914936Y-91308024D01*
X194924951Y-91304770D01*
X195267876Y-91212884D01*
X195278176Y-91210695D01*
X195628825Y-91155157D01*
X195639297Y-91154056D01*
X195996467Y-91135338D01*
X196001732Y-91135200D01*
X198130068Y-91135200D01*
X198135333Y-91135338D01*
G37*
M02*
